<svg width="160"
  height="160"
  viewBox="0 0 448 448"
  fill="none"
  xmlns="http://www.w3.org/2000/svg">
  <path d="M225.49 0C176.11 53.2771 144.571 133.523 144.188 223.459C143.81 313.396 174.662 394.287 223.593 448C209.407 366.693 222.214 277.772 264.092 206.134C274.729 187.938 286.691 171.802 299.653 157.812C288.622 95.0194 262.106 40.118 225.495 0H225.49Z"
    fill="white" />
  <path d="M5.8817 90.0182C-8.65331 171.253 3.50731 259.867 45.0814 331.694C86.6506 403.521 146.383 443.778 210.372 447.98C161.212 394.482 132.71 313.734 132.71 223.792C132.71 200.784 134.731 178.555 138.588 157.085C100.588 115.911 53.678 93.0927 5.8817 90.013V90.0182ZM442.803 92.1345C274.331 123.685 211.059 299.755 235.47 447.99C404.942 416.435 467.528 241.302 442.803 92.1345Z"
    fill="white" />
</svg>
