<svg width="512" height="512" viewBox="0 0 512 512" fill="none" xmlns="http://www.w3.org/2000/svg">
<path d="M257.277 64C214.952 109.666 187.918 178.448 187.59 255.537C187.266 332.625 213.71 401.961 255.651 448C243.491 378.308 254.469 302.09 290.365 240.686C299.482 225.09 309.735 211.258 320.845 199.268C311.391 145.445 288.662 98.3868 257.281 64H257.277Z" fill="#EC407A"/>
<path d="M69.0415 141.158C56.5829 210.789 67.0063 286.743 102.641 348.309C138.272 409.875 189.472 444.381 244.319 447.982C202.182 402.128 177.751 332.915 177.751 255.822C177.751 236.101 179.483 217.047 182.79 198.644C150.218 163.352 110.01 143.794 69.0415 141.154V141.158ZM443.546 142.972C299.141 170.015 244.908 320.933 265.832 447.991C411.094 420.944 464.738 270.83 443.546 142.972Z" fill="#EC407A"/>
</svg>
