<?xml version="1.0" standalone="no"?>
<!DOCTYPE svg PUBLIC "-//W3C//DTD SVG 20010904//EN"
 "http://www.w3.org/TR/2001/REC-SVG-20010904/DTD/svg10.dtd">
<svg version="1.0" xmlns="http://www.w3.org/2000/svg"
 width="512.000000pt" height="512.000000pt" viewBox="0 0 512.000000 512.000000"
 preserveAspectRatio="xMidYMid meet">
<metadata>
Created by potrace 1.11, written by Peter Selinger 2001-2013
</metadata>
<g transform="translate(0.000000,512.000000) scale(0.100000,-0.100000)"
fill="#000000" stroke="none">
<path d="M2514 4414 c-357 -415 -589 -1018 -630 -1639 -19 -276 -2 -564 47
-815 12 -58 23 -116 25 -130 15 -80 74 -266 146 -460 33 -91 165 -337 239
-450 45 -69 85 -127 88 -130 4 -3 31 -35 60 -73 30 -37 56 -67 59 -67 4 0 -5
87 -13 130 -26 136 -27 678 -1 815 2 11 7 43 10 70 72 519 287 1013 605 1395
25 30 49 57 52 60 9 8 -2 73 -37 215 -97 392 -278 768 -498 1034 -34 40 -68
82 -77 93 -15 20 -18 18 -75 -48z"/>
<path d="M686 3683 c-29 -154 -41 -313 -41 -553 0 -241 12 -384 45 -555 5 -27
11 -61 14 -75 33 -194 142 -512 247 -721 266 -531 668 -912 1119 -1063 140
-47 360 -90 360 -71 0 3 -33 47 -74 98 -289 361 -487 856 -551 1382 -3 28 -8
64 -10 80 -24 175 -21 534 5 740 6 44 13 98 16 120 3 22 7 47 10 56 8 29 -201
215 -362 321 -224 147 -443 226 -726 263 -45 6 -46 5 -52 -22z"/>
<path d="M4396 3683 c-1 -2 -27 -8 -57 -13 -82 -15 -254 -73 -376 -125 -708
-307 -1194 -1020 -1319 -1935 -4 -30 -9 -64 -10 -75 -22 -169 -22 -552 0 -725
2 -14 6 -50 10 -80 11 -87 14 -93 44 -85 15 4 41 9 57 12 53 9 257 74 345 109
87 36 278 134 324 166 189 132 386 308 476 424 19 25 43 55 54 67 72 85 239
375 301 522 9 22 21 49 26 60 34 78 120 363 133 435 3 19 14 80 25 135 18 96
23 133 41 304 8 83 5 522 -4 586 -3 22 -11 81 -17 132 -10 81 -14 91 -31 90
-10 -1 -20 -3 -22 -4z"/>
</g>
</svg>
